<?xml version="1.0" encoding="utf-8"?>
<svg viewBox="267.012 182.723 24 22" width="24" height="22" xmlns="http://www.w3.org/2000/svg">
  <defs>
    <linearGradient id="paint0_linear" x1="24" y1="8.93688" x2="1.69513e-06" y2="8.93843" gradientUnits="userSpaceOnUse" gradientTransform="matrix(1, 0, 0, 1, 267.012146, 182.723125)">
      <stop stop-color="#3E99ED"/>
      <stop offset="1" stop-color="#72CFFF"/>
    </linearGradient>
  </defs>
  <path fill-rule="evenodd" clip-rule="evenodd" d="M 284.501 201.937 C 283.168 202.73 281.74 203.579 280.483 204.325 C 280.275 204.449 279.752 204.723 279.014 204.723 C 278.276 204.723 277.78 204.461 277.547 204.325 C 274.543 202.576 270.623 200.232 269.289 199.423 C 267.955 198.614 267.012 197.953 267.012 196.427 C 267.017 195.484 267.023 185.694 267.023 184.36 C 267.023 183.026 268.246 182.222 269.715 183.082 C 271.183 183.941 279.013 188.605 279.013 188.605 C 279.013 188.605 287.006 183.844 288.311 183.082 C 289.811 182.206 291.003 183.051 291.003 184.349 C 291.003 184.976 291.005 187.462 291.008 190.035 C 291.01 192.793 291.012 195.652 291.012 196.43 C 291.012 197.933 290.12 198.606 288.736 199.423 C 287.939 199.893 286.307 200.863 284.501 201.937 Z" fill="url(#paint0_linear)"/>
</svg>